<svg xmlns="http://www.w3.org/2000/svg" width="761.385" height="787.857" viewBox="0 0 761.385 787.857">
  <g id="bg" transform="translate(-1248.214 64.129)">
    <g id="Rectangle_1" data-name="Rectangle 1" transform="matrix(0.875, 0.485, -0.485, 0.875, 1506.066, 70.1)" fill="none" stroke="rgba(112,112,112,0.37)" stroke-width="1">
      <rect width="171" height="171" rx="5" stroke="none"/>
      <rect x="0.5" y="0.5" width="170" height="170" rx="4.5" fill="none"/>
    </g>
    <g id="Rectangle_8" data-name="Rectangle 8" transform="matrix(0.875, 0.485, -0.485, 0.875, 1569.739, 292.151)" fill="none" stroke="rgba(112,112,112,0.37)" stroke-width="1">
      <rect width="171" height="171" rx="5" stroke="none"/>
      <rect x="0.5" y="0.5" width="170" height="170" rx="4.5" fill="none"/>
    </g>
    <g id="Rectangle_6" data-name="Rectangle 6" transform="matrix(0.875, 0.485, -0.485, 0.875, 1331.117, 120.266)" fill="none" stroke="rgba(112,112,112,0.37)" stroke-width="1">
      <rect width="171" height="171" rx="5" stroke="none"/>
      <rect x="0.5" y="0.5" width="170" height="170" rx="4.5" fill="none"/>
    </g>
    <g id="Rectangle_15" data-name="Rectangle 15" transform="matrix(0.875, 0.485, -0.485, 0.875, 1696.117, 491.266)" fill="none" stroke="rgba(112,112,112,0.37)" stroke-width="1">
      <rect width="171" height="171" rx="5" stroke="none"/>
      <rect x="0.5" y="0.5" width="170" height="170" rx="4.5" fill="none"/>
    </g>
    <g id="Rectangle_7" data-name="Rectangle 7" transform="matrix(0.875, 0.485, -0.485, 0.875, 1394.789, 342.317)" fill="none" stroke="rgba(112,112,112,0.37)" stroke-width="1">
      <rect width="171" height="171" rx="5" stroke="none"/>
      <rect x="0.5" y="0.5" width="170" height="170" rx="4.5" fill="none"/>
    </g>
    <g id="Rectangle_2" data-name="Rectangle 2" transform="matrix(0.875, 0.485, -0.485, 0.875, 1622.379, 36.748)" fill="none" stroke="rgba(112,112,112,0.37)" stroke-width="1">
      <rect width="171" height="171" rx="5" stroke="none"/>
      <rect x="0.5" y="0.5" width="170" height="170" rx="4.5" fill="none"/>
    </g>
    <g id="Rectangle_9" data-name="Rectangle 9" transform="matrix(0.875, 0.485, -0.485, 0.875, 1686.051, 258.799)" fill="none" stroke="rgba(112,112,112,0.37)" stroke-width="1">
      <rect width="171" height="171" rx="5" stroke="none"/>
      <rect x="0.5" y="0.5" width="170" height="170" rx="4.5" fill="none"/>
    </g>
    <g id="Rectangle_3" data-name="Rectangle 3" transform="matrix(0.875, 0.485, -0.485, 0.875, 1535.196, -64.129)" fill="none" stroke="rgba(112,112,112,0.37)" stroke-width="1">
      <rect width="171" height="171" rx="5" stroke="none"/>
      <rect x="0.5" y="0.5" width="170" height="170" rx="4.5" fill="none"/>
    </g>
    <g id="Rectangle_13" data-name="Rectangle 13" transform="matrix(0.875, 0.485, -0.485, 0.875, 1447.196, -64.129)" fill="none" stroke="rgba(112,112,112,0.37)" stroke-width="1">
      <rect width="171" height="171" rx="5" stroke="none"/>
      <rect x="0.5" y="0.5" width="170" height="170" rx="4.5" fill="none"/>
    </g>
    <g id="Rectangle_14" data-name="Rectangle 14" transform="matrix(0.875, 0.485, -0.485, 0.875, 1447.196, 490.871)" fill="none" stroke="rgba(112,112,112,0.37)" stroke-width="1">
      <rect width="171" height="171" rx="5" stroke="none"/>
      <rect x="0.5" y="0.5" width="170" height="170" rx="4.5" fill="none"/>
    </g>
    <g id="Rectangle_10" data-name="Rectangle 10" transform="matrix(0.875, 0.485, -0.485, 0.875, 1598.869, 157.922)" fill="none" stroke="rgba(112,112,112,0.37)" stroke-width="1">
      <rect width="171" height="171" rx="5" stroke="none"/>
      <rect x="0.5" y="0.5" width="170" height="170" rx="4.5" fill="none"/>
    </g>
    <g id="Rectangle_4" data-name="Rectangle 4" transform="matrix(0.875, 0.485, -0.485, 0.875, 1580.28, 111.237)" fill="none" stroke="rgba(112,112,112,0.37)" stroke-width="1">
      <rect width="171" height="171" rx="5" stroke="none"/>
      <rect x="0.5" y="0.5" width="170" height="170" rx="4.5" fill="none"/>
    </g>
    <g id="Rectangle_11" data-name="Rectangle 11" transform="matrix(0.875, 0.485, -0.485, 0.875, 1643.953, 333.289)" fill="none" stroke="rgba(112,112,112,0.37)" stroke-width="1">
      <rect width="171" height="171" rx="5" stroke="none"/>
      <rect x="0.5" y="0.5" width="170" height="170" rx="4.5" fill="none"/>
    </g>
    <g id="Rectangle_5" data-name="Rectangle 5" transform="matrix(0.875, 0.485, -0.485, 0.875, 1796.367, -13.143)" fill="none" stroke="rgba(112,112,112,0.37)" stroke-width="1">
      <rect width="171" height="171" rx="5" stroke="none"/>
      <rect x="0.5" y="0.5" width="170" height="170" rx="4.5" fill="none"/>
    </g>
    <g id="Rectangle_12" data-name="Rectangle 12" transform="matrix(0.875, 0.485, -0.485, 0.875, 1860.04, 208.909)" fill="none" stroke="rgba(112,112,112,0.37)" stroke-width="1">
      <rect width="171" height="171" rx="5" stroke="none"/>
      <rect x="0.5" y="0.5" width="170" height="170" rx="4.5" fill="none"/>
    </g>
  </g>
</svg>
